<svg id="page100" xmlns="http://www.w3.org/2000/svg" xmlns:ev="http://www.w3.org/2001/xml-events" xmlns:ed="https://www.edrawsoft.cn/xml/2017/SVGExtensions/" xmlns:xlink="http://www.w3.org/1999/xlink" ed:hSpacing="30" ed:name="页面-1" height="721" width="1101" ed:vSpacing="30" viewBox="0 0 1101 721"><style type="text/css"><![CDATA[
g[ed\:togtopicid],g[ed\:hyperlink],g[ed\:comment],g[ed\:note] {cursor:pointer;}
g[id] {-moz-user-select: none;-ms-user-select: none;user-select: none;}
svg text::selection,svg tspan::selection{background-color: #4285f4;color: #ffffff;fill: #ffffff;}
.st3 {fill:#454545;font-family:Monaco;font-size:10pt}
.st2 {fill:#454545;font-family:Monaco;font-size:12pt}
.st1 {fill:#454545;font-family:Monaco;font-size:14pt}
]]></style><defs/><rect y="0" fill="#ffffff" height="721" width="1101" x="0"/><path stroke="#e0a7d3" ed:tosuperid="102" transform="matrix(1,0,0,1,193.5,252)" id="103" ed:parentid="101" fill="#e0a7d3" stroke-linejoin="round" d="M-31.5,133.8C-32.6,134,-33.3,134.4,-33.3,135.3C-33.3,136.1,-32.6,137,-31.5,136.8C-28.8,136.1,-26.2,135.5,-24.1,134.1C-22.1,132.7,-20.6,130.4,-19.4,128.2C-18.2,126.1,-17.2,123.9,-16.4,121.6C-15.6,119.4,-15,117.1,-14.4,114.8C-13.8,112.5,-13.3,110.2,-12.9,107.9C-12.4,105.6,-12,103.3,-11.7,100.9C-11.4,98.6,-11,96.3,-10.8,94C-10.5,91.6,-10.3,89.3,-10,87C-9.8,84.7,-9.6,82.3,-9.4,80C-9.2,77.7,-9.1,75.3,-8.9,73C-8.8,70.7,-8.6,68.3,-8.5,66C-8.4,63.7,-8.3,61.3,-8.2,59C-8.1,56.7,-8,54.3,-7.9,52C-7.8,49.7,-7.7,47.3,-7.6,45C-7.5,42.7,-7.5,40.3,-7.4,38C-7.3,35.7,-7.2,33.3,-7.2,31C-7.1,28.7,-7,26.3,-7,24C-6.9,21.7,-6.9,19.3,-6.8,17C-6.7,14.7,-6.7,12.3,-6.6,10C-6.5,7.7,-6.5,5.3,-6.4,3C-6.3,0.7,-6.3,-1.7,-6.2,-4C-6.1,-6.3,-6,-8.7,-6,-11C-5.9,-13.3,-5.8,-15.6,-5.7,-18C-5.6,-20.3,-5.5,-22.6,-5.4,-25C-5.3,-27.3,-5.2,-29.6,-5.1,-32C-5,-34.3,-4.8,-36.6,-4.7,-38.9C-4.6,-41.3,-4.4,-43.6,-4.2,-45.9C-4.1,-48.2,-3.9,-50.6,-3.7,-52.9C-3.5,-55.2,-3.3,-57.5,-3.1,-59.9C-2.9,-62.2,-2.7,-64.5,-2.4,-66.8C-2.2,-69.1,-1.9,-71.5,-1.6,-73.8C-1.3,-76.1,-1,-78.4,-0.6,-80.7C-0.3,-83,0.1,-85.3,0.5,-87.6C0.9,-89.9,1.4,-92.2,1.9,-94.4C2.4,-96.7,2.9,-99,3.5,-101.2C4.1,-103.5,4.8,-105.7,5.5,-107.9C6.2,-110.2,7,-112.3,7.9,-114.5C8.8,-116.6,9.8,-118.7,10.9,-120.8C12.1,-122.8,13.4,-124.8,14.8,-126.6C16.3,-128.4,17.9,-130,19.8,-131.4C21.8,-132.8,24,-133.9,26,-134.5C28,-135.1,29.8,-135.2,31.5,-135.3C29.8,-135.2,28,-135.1,26,-134.5C24,-134,21.7,-132.9,19.7,-131.5C17.8,-130.1,16.1,-128.5,14.6,-126.7C13.2,-124.9,11.9,-122.9,10.7,-120.9C9.5,-118.9,8.5,-116.8,7.6,-114.6C6.7,-112.5,5.8,-110.3,5.1,-108.1C4.3,-105.9,3.7,-103.6,3,-101.4C2.4,-99.1,1.9,-96.8,1.3,-94.6C0.8,-92.3,0.3,-90,-0.1,-87.7C-0.5,-85.4,-0.9,-83.1,-1.3,-80.8C-1.7,-78.5,-2,-76.2,-2.4,-73.9C-2.7,-71.6,-3,-69.2,-3.3,-66.9C-3.5,-64.6,-3.8,-62.3,-4,-60C-4.3,-57.6,-4.5,-55.3,-4.7,-53C-4.9,-50.7,-5.1,-48.3,-5.3,-46C-5.5,-43.7,-5.7,-41.3,-5.8,-39C-6,-36.7,-6.1,-34.4,-6.3,-32C-6.4,-29.7,-6.6,-27.4,-6.7,-25C-6.8,-22.7,-6.9,-20.4,-7.1,-18C-7.2,-15.7,-7.3,-13.4,-7.4,-11C-7.5,-8.7,-7.6,-6.4,-7.7,-4C-7.8,-1.7,-7.9,0.6,-8,2.9C-8.1,5.3,-8.2,7.6,-8.2,9.9C-8.3,12.3,-8.4,14.6,-8.5,16.9C-8.6,19.3,-8.7,21.6,-8.8,23.9C-8.8,26.3,-8.9,28.6,-9,30.9C-9.1,33.3,-9.2,35.6,-9.3,37.9C-9.4,40.3,-9.5,42.6,-9.6,44.9C-9.7,47.2,-9.8,49.6,-9.9,51.9C-10,54.2,-10.2,56.6,-10.3,58.9C-10.4,61.2,-10.6,63.5,-10.7,65.9C-10.9,68.2,-11,70.5,-11.2,72.8C-11.4,75.2,-11.6,77.5,-11.8,79.8C-12,82.1,-12.2,84.4,-12.4,86.7C-12.7,89.1,-13,91.4,-13.3,93.7C-13.5,96,-13.9,98.3,-14.2,100.6C-14.6,102.8,-15,105.1,-15.5,107.4C-15.9,109.7,-16.4,111.9,-17,114.1C-17.6,116.4,-18.3,118.6,-19.1,120.7C-19.8,122.8,-20.8,124.9,-21.9,126.8C-23,128.8,-24.3,130.6,-26,131.8C-27.6,132.9,-29.5,133.3,-31.5,133.8z" stroke-linecap="round"/><path stroke="#70bdf2" ed:tosuperid="104" transform="matrix(1,0,0,1,193.5,317.38)" id="105" ed:parentid="101" fill="#70bdf2" stroke-linejoin="round" d="M-31.5,68.4C-32.6,68.5,-33.3,69,-33.3,69.9C-33.3,70.7,-32.6,71.5,-31.5,71.4C-28.9,71,-26.3,70.6,-24.1,69.5C-21.8,68.4,-19.9,66.6,-18.4,64.6C-16.9,62.6,-15.7,60.5,-14.7,58.3C-13.7,56.2,-12.8,53.9,-12.1,51.7C-11.4,49.4,-10.8,47.1,-10.3,44.8C-9.7,42.5,-9.3,40.2,-8.9,37.9C-8.4,35.6,-8.1,33.3,-7.7,30.9C-7.4,28.6,-7.1,26.3,-6.8,24C-6.5,21.7,-6.2,19.4,-6,17C-5.7,14.7,-5.4,12.4,-5.2,10.1C-4.9,7.7,-4.7,5.4,-4.4,3.1C-4.2,0.8,-3.9,-1.5,-3.6,-3.8C-3.4,-6.2,-3.1,-8.5,-2.8,-10.8C-2.5,-13.1,-2.2,-15.4,-1.9,-17.7C-1.5,-20,-1.1,-22.3,-0.7,-24.6C-0.3,-26.9,0.1,-29.2,0.6,-31.5C1.1,-33.7,1.6,-36,2.2,-38.2C2.8,-40.5,3.5,-42.7,4.2,-44.9C5,-47.1,5.8,-49.3,6.8,-51.4C7.8,-53.5,8.9,-55.5,10.1,-57.5C11.4,-59.4,12.9,-61.3,14.5,-62.9C16.1,-64.5,17.9,-65.9,20.1,-67.1C22.2,-68.2,24.6,-69,26.6,-69.4C28.6,-69.8,30,-69.8,31.5,-69.9C30,-69.9,28.6,-69.9,26.6,-69.5C24.6,-69.1,22.1,-68.3,20,-67.2C17.8,-66.2,15.9,-64.8,14.3,-63.1C12.6,-61.5,11.1,-59.7,9.8,-57.7C8.4,-55.8,7.3,-53.7,6.3,-51.6C5.3,-49.5,4.4,-47.4,3.5,-45.2C2.7,-43,2,-40.7,1.4,-38.5C0.7,-36.2,0.2,-33.9,-0.4,-31.7C-0.9,-29.4,-1.4,-27.1,-1.8,-24.8C-2.3,-22.5,-2.7,-20.2,-3.1,-17.9C-3.5,-15.6,-3.8,-13.3,-4.1,-11C-4.5,-8.7,-4.8,-6.3,-5.1,-4C-5.4,-1.7,-5.7,0.6,-6,2.9C-6.3,5.2,-6.6,7.5,-6.9,9.9C-7.2,12.2,-7.5,14.5,-7.8,16.8C-8.1,19.1,-8.4,21.4,-8.8,23.7C-9.1,26,-9.4,28.3,-9.8,30.6C-10.2,32.9,-10.6,35.2,-11.1,37.5C-11.5,39.8,-12,42,-12.6,44.3C-13.1,46.5,-13.8,48.7,-14.5,50.9C-15.2,53.1,-16,55.2,-17,57.2C-18,59.3,-19.2,61.2,-20.5,62.9C-21.9,64.6,-23.6,66.1,-25.4,67C-27.3,67.9,-29.4,68.1,-31.5,68.4z" stroke-linecap="round"/><path stroke="#e38d76" ed:tosuperid="106" transform="matrix(1,0,0,1,193.5,424)" id="107" ed:parentid="101" fill="#e38d76" stroke-linejoin="round" d="M-31.5,-38.3C-32.6,-38.4,-33.3,-37.6,-33.3,-36.8C-33.3,-35.9,-32.6,-35.3,-31.5,-35.3C-29.3,-35.1,-27.2,-34.9,-25.1,-34.3C-23.1,-33.6,-21.2,-32.4,-19.5,-31C-17.8,-29.6,-16.3,-27.9,-14.9,-26.1C-13.6,-24.3,-12.4,-22.4,-11.3,-20.3C-10.2,-18.3,-9.2,-16.2,-8.3,-14.1C-7.4,-12,-6.5,-9.9,-5.6,-7.7C-4.8,-5.5,-3.9,-3.4,-3.1,-1.2C-2.3,1,-1.4,3.2,-0.6,5.4C0.3,7.5,1.2,9.7,2.2,11.8C3.1,14,4.1,16.1,5.2,18.2C6.4,20.2,7.6,22.2,8.9,24.2C10.3,26.1,11.8,27.9,13.5,29.6C15.2,31.2,17,32.6,19.1,33.8C21.2,34.9,23.6,35.8,25.7,36.2C27.8,36.7,29.6,36.7,31.5,36.8C29.7,36.7,27.8,36.6,25.7,36.1C23.6,35.6,21.3,34.6,19.3,33.5C17.3,32.3,15.5,30.8,13.9,29.2C12.3,27.5,10.8,25.7,9.6,23.7C8.3,21.8,7.2,19.8,6.1,17.7C5.1,15.6,4.1,13.5,3.2,11.4C2.4,9.2,1.5,7,0.7,4.9C-0.1,2.7,-0.8,0.5,-1.6,-1.7C-2.4,-3.9,-3.1,-6.1,-3.9,-8.3C-4.7,-10.5,-5.6,-12.7,-6.5,-14.9C-7.3,-17.1,-8.3,-19.2,-9.4,-21.4C-10.4,-23.5,-11.6,-25.6,-13,-27.5C-14.4,-29.5,-15.9,-31.4,-17.8,-33C-19.7,-34.6,-21.8,-36.1,-24.2,-36.9C-26.5,-37.7,-29,-38,-31.5,-38.3z" stroke-linecap="round"/><path stroke="#7dbd8d" ed:tosuperid="108" transform="matrix(1,0,0,1,193.5,536.25)" id="109" ed:parentid="101" fill="#7dbd8d" stroke-linejoin="round" d="M-31.5,-150.5C-32.5,-150.8,-33.3,-149.8,-33.3,-149C-33.3,-148.2,-32.6,-147.8,-31.5,-147.5C-29.6,-147,-27.7,-146.6,-26.1,-145.4C-24.5,-144.2,-23.2,-142.3,-22.2,-140.3C-21.1,-138.3,-20.2,-136.2,-19.4,-134.1C-18.7,-132,-18,-129.7,-17.5,-127.5C-16.9,-125.3,-16.4,-123,-15.9,-120.8C-15.5,-118.5,-15.1,-116.2,-14.7,-113.9C-14.3,-111.6,-14,-109.3,-13.7,-107C-13.4,-104.7,-13.2,-102.4,-12.9,-100.1C-12.7,-97.8,-12.4,-95.5,-12.2,-93.2C-12,-90.8,-11.8,-88.5,-11.6,-86.2C-11.5,-83.9,-11.3,-81.6,-11.1,-79.2C-11,-76.9,-10.8,-74.6,-10.7,-72.3C-10.6,-69.9,-10.4,-67.6,-10.3,-65.3C-10.2,-62.9,-10.1,-60.6,-10,-58.3C-9.9,-56,-9.8,-53.6,-9.7,-51.3C-9.6,-49,-9.5,-46.6,-9.4,-44.3C-9.3,-42,-9.2,-39.6,-9.1,-37.3C-9.1,-35,-9,-32.6,-8.9,-30.3C-8.8,-28,-8.7,-25.7,-8.7,-23.3C-8.6,-21,-8.5,-18.7,-8.4,-16.3C-8.3,-14,-8.3,-11.7,-8.2,-9.3C-8.1,-7,-8,-4.7,-7.9,-2.3C-7.9,0,-7.8,2.3,-7.7,4.7C-7.6,7,-7.5,9.3,-7.4,11.7C-7.3,14,-7.2,16.3,-7.1,18.7C-7,21,-6.9,23.3,-6.8,25.7C-6.7,28,-6.6,30.3,-6.4,32.6C-6.3,35,-6.2,37.3,-6,39.6C-5.9,42,-5.7,44.3,-5.6,46.6C-5.4,49,-5.3,51.3,-5.1,53.6C-4.9,55.9,-4.7,58.3,-4.5,60.6C-4.3,62.9,-4.1,65.3,-3.9,67.6C-3.7,69.9,-3.4,72.2,-3.2,74.5C-2.9,76.9,-2.6,79.2,-2.3,81.5C-2,83.8,-1.7,86.1,-1.4,88.4C-1.1,90.8,-0.7,93.1,-0.3,95.4C0.1,97.7,0.5,100,1,102.3C1.4,104.6,1.9,106.8,2.4,109.1C3,111.4,3.5,113.7,4.2,115.9C4.8,118.2,5.5,120.4,6.2,122.6C7,124.8,7.8,127,8.8,129.1C9.7,131.3,10.7,133.4,11.9,135.4C13.1,137.4,14.4,139.4,15.9,141.2C17.4,142.9,19,144.6,21.1,145.9C23.2,147.2,25.7,148.1,27.5,148.6C29.3,149.1,30.4,149,31.5,149C30.4,149,29.3,149,27.5,148.6C25.7,148.1,23.2,147.1,21.2,145.8C19.1,144.5,17.5,142.8,16.1,141C14.6,139.3,13.3,137.3,12.1,135.3C11,133.3,10,131.2,9,129C8.1,126.9,7.3,124.7,6.6,122.5C5.9,120.3,5.2,118,4.6,115.8C4,113.5,3.4,111.3,2.9,109C2.4,106.7,1.9,104.4,1.5,102.2C1.1,99.9,0.7,97.6,0.3,95.3C-0,93,-0.4,90.7,-0.7,88.3C-1,86,-1.3,83.7,-1.6,81.4C-1.9,79.1,-2.1,76.8,-2.3,74.5C-2.6,72.1,-2.8,69.8,-3,67.5C-3.2,65.2,-3.4,62.8,-3.6,60.5C-3.7,58.2,-3.9,55.9,-4.1,53.5C-4.2,51.2,-4.4,48.9,-4.5,46.6C-4.6,44.2,-4.8,41.9,-4.9,39.6C-5,37.2,-5.1,34.9,-5.2,32.6C-5.3,30.3,-5.4,27.9,-5.5,25.6C-5.6,23.3,-5.7,20.9,-5.8,18.6C-5.8,16.3,-5.9,13.9,-6,11.6C-6.1,9.3,-6.1,6.9,-6.2,4.6C-6.3,2.3,-6.3,-0,-6.4,-2.4C-6.4,-4.7,-6.5,-7,-6.6,-9.4C-6.6,-11.7,-6.7,-14,-6.7,-16.4C-6.8,-18.7,-6.8,-21,-6.9,-23.4C-7,-25.7,-7,-28,-7.1,-30.4C-7.1,-32.7,-7.2,-35,-7.3,-37.4C-7.3,-39.7,-7.4,-42,-7.5,-44.4C-7.5,-46.7,-7.6,-49,-7.7,-51.4C-7.7,-53.7,-7.8,-56,-7.9,-58.4C-8,-60.7,-8.1,-63,-8.2,-65.4C-8.3,-67.7,-8.4,-70,-8.5,-72.4C-8.6,-74.7,-8.7,-77,-8.9,-79.4C-9,-81.7,-9.1,-84,-9.3,-86.4C-9.5,-88.7,-9.6,-91,-9.8,-93.4C-10,-95.7,-10.2,-98,-10.4,-100.4C-10.7,-102.7,-10.9,-105,-11.2,-107.3C-11.5,-109.7,-11.8,-112,-12.1,-114.3C-12.5,-116.6,-12.9,-119,-13.3,-121.3C-13.7,-123.6,-14.2,-125.9,-14.8,-128.2C-15.4,-130.5,-16,-132.8,-16.8,-135C-17.6,-137.3,-18.5,-139.4,-19.6,-141.7C-20.8,-143.9,-22.1,-146.1,-24.2,-147.6C-26.2,-149.1,-28.8,-149.8,-31.5,-150.5z" stroke-linecap="round"/><path stroke="#e0a7d3" ed:tosuperid="110" transform="matrix(1,0,0,1,364.5,105.88)" id="111" ed:parentid="102" stroke-linejoin="round" fill="none" d="M-13.5,10.9C-0.2,10.9,-0.5,-10.9,13.5,-10.9" stroke-linecap="round"/><path stroke="#e0a7d3" ed:tosuperid="114" transform="matrix(1,0,0,1,364.5,147.13)" id="115" ed:parentid="102" stroke-linejoin="round" fill="none" d="M-13.5,-30.4C3.6,-30.4,-9.2,30.4,13.5,30.4" stroke-linecap="round"/><path stroke="#e0a7d3" ed:tosuperid="116" transform="matrix(1,0,0,1,497.5,86.75)" id="117" ed:parentid="110" stroke-linejoin="round" fill="none" d="M-13.5,8.3C-0.8,8.3,0.9,-8.3,13.5,-8.3" stroke-linecap="round"/><path stroke="#e0a7d3" ed:tosuperid="118" transform="matrix(1,0,0,1,497.5,119.75)" id="119" ed:parentid="110" stroke-linejoin="round" fill="none" d="M-13.5,-24.8C2.6,-24.8,-7.1,24.8,13.5,24.8" stroke-linecap="round"/><path stroke="#e0a7d3" ed:tosuperid="121" transform="matrix(1,0,0,1,598.5,78.5)" id="122" ed:parentid="116" stroke-linejoin="round" fill="none" d="M-13.5,0C-2.7,0,5.4,0,13.5,0" stroke-linecap="round"/><path stroke="#e0a7d3" ed:tosuperid="123" transform="matrix(1,0,0,1,739.5,62)" id="124" ed:parentid="121" stroke-linejoin="round" fill="none" d="M-13.5,16.5C1,16.5,-3.3,-16.5,13.5,-16.5" stroke-linecap="round"/><path stroke="#e0a7d3" ed:tosuperid="125" transform="matrix(1,0,0,1,739.5,86.75)" id="126" ed:parentid="121" stroke-linejoin="round" fill="none" d="M-13.5,-8.3C-0.8,-8.3,0.9,8.3,13.5,8.3" stroke-linecap="round"/><path stroke="#e0a7d3" ed:tosuperid="127" transform="matrix(1,0,0,1,896.5,86.75)" id="128" ed:parentid="125" stroke-linejoin="round" fill="none" d="M-13.5,8.3C-0.8,8.3,0.9,-8.3,13.5,-8.3" stroke-linecap="round"/><path stroke="#e0a7d3" ed:tosuperid="129" transform="matrix(1,0,0,1,896.5,103.25)" id="130" ed:parentid="125" stroke-linejoin="round" fill="none" d="M-13.5,-8.3C-0.8,-8.3,0.9,8.3,13.5,8.3" stroke-linecap="round"/><path stroke="#e38d76" ed:tosuperid="131" transform="matrix(1,0,0,1,354.5,392.13)" id="132" ed:parentid="106" stroke-linejoin="round" fill="none" d="M-13.5,68.6C5.4,68.6,-13.5,-68.6,13.5,-68.6" stroke-linecap="round"/><path stroke="#e38d76" ed:tosuperid="133" transform="matrix(1,0,0,1,354.5,416.88)" id="134" ed:parentid="106" stroke-linejoin="round" fill="none" d="M-13.5,43.9C5.1,43.9,-12.7,-43.9,13.5,-43.9" stroke-linecap="round"/><path stroke="#e38d76" ed:tosuperid="135" transform="matrix(1,0,0,1,354.5,466.38)" id="136" ed:parentid="106" stroke-linejoin="round" fill="none" d="M-13.5,-5.6C-1.4,-5.6,2.3,5.6,13.5,5.6" stroke-linecap="round"/><path stroke="#e38d76" ed:tosuperid="137" transform="matrix(1,0,0,1,354.5,515.88)" id="138" ed:parentid="106" stroke-linejoin="round" fill="none" d="M-13.5,-55.1C5.4,-55.1,-13.5,55.1,13.5,55.1" stroke-linecap="round"/><path stroke="#e38d76" ed:tosuperid="139" transform="matrix(1,0,0,1,354.5,532.38)" id="140" ed:parentid="106" stroke-linejoin="round" fill="none" d="M-13.5,-71.6C5.4,-71.6,-13.5,71.6,13.5,71.6" stroke-linecap="round"/><path stroke="#e38d76" ed:tosuperid="141" transform="matrix(1,0,0,1,511.5,315.25)" id="142" ed:parentid="131" stroke-linejoin="round" fill="none" d="M-13.5,8.3C-0.8,8.3,0.9,-8.3,13.5,-8.3" stroke-linecap="round"/><path stroke="#e38d76" ed:tosuperid="143" transform="matrix(1,0,0,1,511.5,331.75)" id="144" ed:parentid="131" stroke-linejoin="round" fill="none" d="M-13.5,-8.3C-0.8,-8.3,0.9,8.3,13.5,8.3" stroke-linecap="round"/><path stroke="#e38d76" ed:tosuperid="145" transform="matrix(1,0,0,1,479.5,373)" id="146" ed:parentid="133" stroke-linejoin="round" fill="none" d="M-13.5,0C-2.7,0,5.4,0,13.5,0" stroke-linecap="round"/><path stroke="#e38d76" ed:tosuperid="147" transform="matrix(1,0,0,1,519.5,439)" id="148" ed:parentid="135" stroke-linejoin="round" fill="none" d="M-13.5,33C3.9,33,-10.1,-33,13.5,-33" stroke-linecap="round"/><path stroke="#e38d76" ed:tosuperid="149" transform="matrix(1,0,0,1,519.5,480.25)" id="150" ed:parentid="135" stroke-linejoin="round" fill="none" d="M-13.5,-8.3C-0.8,-8.3,0.9,8.3,13.5,8.3" stroke-linecap="round"/><path stroke="#e38d76" ed:tosuperid="151" transform="matrix(1,0,0,1,668.5,463.75)" id="152" ed:parentid="149" stroke-linejoin="round" fill="none" d="M-13.5,24.8C2.6,24.8,-7.1,-24.8,13.5,-24.8" stroke-linecap="round"/><path stroke="#e38d76" ed:tosuperid="155" transform="matrix(1,0,0,1,668.5,496.75)" id="156" ed:parentid="149" stroke-linejoin="round" fill="none" d="M-13.5,-8.3C-0.8,-8.3,0.9,8.3,13.5,8.3" stroke-linecap="round"/><path stroke="#e38d76" ed:tosuperid="157" transform="matrix(1,0,0,1,833.5,439)" id="158" ed:parentid="151" stroke-linejoin="round" fill="none" d="M-13.5,0C-2.7,0,5.4,0,13.5,0" stroke-linecap="round"/><path stroke="#e38d76" ed:tosuperid="159" transform="matrix(1,0,0,1,777.5,488.5)" id="160" ed:parentid="155" stroke-linejoin="round" fill="none" d="M-13.5,16.5C1,16.5,-3.3,-16.5,13.5,-16.5" stroke-linecap="round"/><path stroke="#e38d76" ed:tosuperid="161" transform="matrix(1,0,0,1,777.5,505)" id="162" ed:parentid="155" stroke-linejoin="round" fill="none" d="M-13.5,0C-2.7,0,5.4,0,13.5,0" stroke-linecap="round"/><path stroke="#e38d76" ed:tosuperid="163" transform="matrix(1,0,0,1,777.5,521.5)" id="164" ed:parentid="155" stroke-linejoin="round" fill="none" d="M-13.5,-16.5C1,-16.5,-3.3,16.5,13.5,16.5" stroke-linecap="round"/><path stroke="#7dbd8d" ed:tosuperid="165" transform="matrix(1,0,0,1,364.5,674.38)" id="166" ed:parentid="108" stroke-linejoin="round" fill="none" d="M-13.5,10.9C-0.2,10.9,-0.5,-10.9,13.5,-10.9" stroke-linecap="round"/><path stroke="#7dbd8d" ed:tosuperid="167" transform="matrix(1,0,0,1,364.5,690.88)" id="168" ed:parentid="108" stroke-linejoin="round" fill="none" d="M-13.5,-5.6C-1.4,-5.6,2.3,5.6,13.5,5.6" stroke-linecap="round"/><path stroke="#7dbd8d" ed:tosuperid="169" transform="matrix(1,0,0,1,449.5,696.5)" id="170" ed:parentid="167" stroke-linejoin="round" fill="none" d="M-13.5,0C-2.7,0,5.4,0,13.5,0" stroke-linecap="round"/><path stroke="#7dbd8d" ed:tosuperid="171" transform="matrix(1,0,0,1,526.5,696.5)" id="172" ed:parentid="169" stroke-linejoin="round" fill="none" d="M-13.5,0C-2.7,0,5.4,0,13.5,0" stroke-linecap="round"/><g ed:topictype="mainidea" transform="matrix(1,0,0,1,23,328.25)" id="101" ed:width="139" ed:layout="rightmap" ed:height="59"><path fill="#d0e8e9" d="M0,0L139,0L139,59L0,59L0,0z"/><path stroke="#50bec1" stroke-linejoin="round" fill="none" d="M0,59L139,59" stroke-width="3"/><text class="st1"><tspan y="34.2" style="white-space:pre" x="19">ksys_read</tspan></text></g><g transform="matrix(1,0,0,1,225,79.75)" id="102" ed:width="126" ed:parentid="101" ed:height="37"><path fill="#f3e1ef" d="M0,0L126,0L126,37L0,37L0,0z"/><path stroke="#e0a7d3" stroke-linejoin="round" fill="none" d="M0,37L126,37" stroke-width="3"/><text class="st2"><tspan y="22.7" style="white-space:pre" x="17">fdget_pos</tspan></text></g><g transform="matrix(1,0,0,1,225,210.5)" id="104" ed:width="126" ed:parentid="101" ed:height="37"><path fill="#d5e8fa" d="M0,0L126,0L126,37L0,37L0,0z"/><path stroke="#70bdf2" stroke-linejoin="round" fill="none" d="M0,37L126,37" stroke-width="3"/><text class="st2"><tspan y="22.7" style="white-space:pre" x="17">file_ppos</tspan></text></g><g transform="matrix(1,0,0,1,225,423.75)" id="106" ed:width="116" ed:parentid="101" ed:height="37"><path fill="#f4dbd6" d="M0,0L116,0L116,37L0,37L0,0z"/><path stroke="#e38d76" stroke-linejoin="round" fill="none" d="M0,37L116,37" stroke-width="3"/><text class="st2"><tspan y="22.7" style="white-space:pre" x="17">vfs_read</tspan></text></g><g transform="matrix(1,0,0,1,225,648.25)" id="108" ed:width="126" ed:parentid="101" ed:height="37"><path fill="#d7e8db" d="M0,0L126,0L126,37L0,37L0,0z"/><path stroke="#7dbd8d" stroke-linejoin="round" fill="none" d="M0,37L126,37" stroke-width="3"/><text class="st2"><tspan y="22.7" style="white-space:pre" x="17">fdput_pos</tspan></text></g><g transform="matrix(1,0,0,1,378,68.5)" id="110" ed:width="106" ed:parentid="102" ed:height="26.5"><path stroke="#e0a7d3" stroke-linejoin="round" fill="none" d="M0,26.5L106,26.5"/><text class="st3"><tspan y="16.4" style="white-space:pre" x="8">__fdget_pos</tspan></text></g><g transform="matrix(1,0,0,1,378,151)" id="114" ed:width="74" ed:parentid="102" ed:height="26.5"><path stroke="#e0a7d3" stroke-linejoin="round" fill="none" d="M0,26.5L74,26.5"/><text class="st3"><tspan y="16.4" style="white-space:pre" x="8">__to_fd</tspan></text></g><g transform="matrix(1,0,0,1,511,52)" id="116" ed:width="74" ed:parentid="110" ed:height="26.5"><path stroke="#e0a7d3" stroke-linejoin="round" fill="none" d="M0,26.5L74,26.5"/><text class="st3"><tspan y="16.4" style="white-space:pre" x="8">__fdget</tspan></text></g><g transform="matrix(1,0,0,1,511,118)" id="118" ed:width="98" ed:parentid="110" ed:height="26.5"><path stroke="#e0a7d3" stroke-linejoin="round" fill="none" d="M0,26.5L98,26.5"/><text class="st3"><tspan y="16.4" style="white-space:pre" x="8">file_count</tspan></text></g><g transform="matrix(1,0,0,1,612,52)" id="121" ed:width="114" ed:parentid="116" ed:height="26.5"><path stroke="#e0a7d3" stroke-linejoin="round" fill="none" d="M0,26.5L114,26.5"/><text class="st3"><tspan y="16.4" style="white-space:pre" x="8">__fget_light</tspan></text></g><g transform="matrix(1,0,0,1,753,19)" id="123" ed:width="66" ed:parentid="121" ed:height="26.5"><path stroke="#e0a7d3" stroke-linejoin="round" fill="none" d="M0,26.5L66,26.5"/><text class="st3"><tspan y="16.4" style="white-space:pre" x="8">__fget</tspan></text></g><g transform="matrix(1,0,0,1,753,68.5)" id="125" ed:width="130" ed:parentid="121" ed:height="26.5"><path stroke="#e0a7d3" stroke-linejoin="round" fill="none" d="M0,26.5L130,26.5"/><text class="st3"><tspan y="16.4" style="white-space:pre" x="8">__fcheck_files</tspan></text></g><g transform="matrix(1,0,0,1,910,52)" id="127" ed:width="162" ed:parentid="125" ed:height="26.5"><path stroke="#e0a7d3" stroke-linejoin="round" fill="none" d="M0,26.5L162,26.5"/><text class="st3"><tspan y="16.4" style="white-space:pre" x="8">array_index_nospec</tspan></text></g><g transform="matrix(1,0,0,1,910,85)" id="129" ed:width="170" ed:parentid="125" ed:height="26.5"><path stroke="#e0a7d3" stroke-linejoin="round" fill="none" d="M0,26.5L170,26.5"/><text class="st3"><tspan y="16.4" style="white-space:pre" x="8">rcu_dereference_raw</tspan></text></g><g transform="matrix(1,0,0,1,368,297)" id="131" ed:width="130" ed:parentid="106" ed:height="26.5"><path stroke="#e38d76" stroke-linejoin="round" fill="none" d="M0,26.5L130,26.5"/><text class="st3"><tspan y="16.4" style="white-space:pre" x="8">rw_verify_area</tspan></text></g><g transform="matrix(1,0,0,1,368,346.5)" id="133" ed:width="98" ed:parentid="106" ed:height="26.5"><path stroke="#e38d76" stroke-linejoin="round" fill="none" d="M0,26.5L98,26.5"/><text class="st3"><tspan y="16.4" style="white-space:pre" x="8">__vfs_read</tspan></text></g><g transform="matrix(1,0,0,1,368,445.5)" id="135" ed:width="138" ed:parentid="106" ed:height="26.5"><path stroke="#e38d76" stroke-linejoin="round" fill="none" d="M0,26.5L138,26.5"/><text class="st3"><tspan y="16.4" style="white-space:pre" x="8">fsnotify_access</tspan></text></g><g transform="matrix(1,0,0,1,368,544.5)" id="137" ed:width="90" ed:parentid="106" ed:height="26.5"><path stroke="#e38d76" stroke-linejoin="round" fill="none" d="M0,26.5L90,26.5"/><text class="st3"><tspan y="16.4" style="white-space:pre" x="8">add_rchar</tspan></text></g><g transform="matrix(1,0,0,1,368,577.5)" id="139" ed:width="90" ed:parentid="106" ed:height="26.5"><path stroke="#e38d76" stroke-linejoin="round" fill="none" d="M0,26.5L90,26.5"/><text class="st3"><tspan y="16.4" style="white-space:pre" x="8">inc_syscr</tspan></text></g><g transform="matrix(1,0,0,1,525,280.5)" id="141" ed:width="98" ed:parentid="131" ed:height="26.5"><path stroke="#e38d76" stroke-linejoin="round" fill="none" d="M0,26.5L98,26.5"/><text class="st3"><tspan y="16.4" style="white-space:pre" x="8">file_inode</tspan></text></g><g transform="matrix(1,0,0,1,525,313.5)" id="143" ed:width="178" ed:parentid="131" ed:height="26.5"><path stroke="#e38d76" stroke-linejoin="round" fill="none" d="M0,26.5L178,26.5"/><text class="st3"><tspan y="16.4" style="white-space:pre" x="8">locks_mandatory_area</tspan></text></g><g transform="matrix(1,0,0,1,493,346.5)" id="145" ed:width="122" ed:parentid="133" ed:height="26.5"><path stroke="#e38d76" stroke-linejoin="round" fill="none" d="M0,26.5L122,26.5"/><text class="st3"><tspan y="16.4" style="white-space:pre" x="8">new_sync_read</tspan></text></g><g transform="matrix(1,0,0,1,533,379.5)" id="147" ed:width="98" ed:parentid="135" ed:height="26.5"><path stroke="#e38d76" stroke-linejoin="round" fill="none" d="M0,26.5L98,26.5"/><text class="st3"><tspan y="16.4" style="white-space:pre" x="8">file_inode</tspan></text></g><g transform="matrix(1,0,0,1,533,462)" id="149" ed:width="122" ed:parentid="135" ed:height="26.5"><path stroke="#e38d76" stroke-linejoin="round" fill="none" d="M0,26.5L122,26.5"/><text class="st3"><tspan y="16.4" style="white-space:pre" x="8">fsnotify_path</tspan></text></g><g transform="matrix(1,0,0,1,682,412.5)" id="151" ed:width="138" ed:parentid="149" ed:height="26.5"><path stroke="#e38d76" stroke-linejoin="round" fill="none" d="M0,26.5L138,26.5"/><text class="st3"><tspan y="16.4" style="white-space:pre" x="8">fsnotify_parent</tspan></text></g><g transform="matrix(1,0,0,1,682,478.5)" id="155" ed:width="82" ed:parentid="149" ed:height="26.5"><path stroke="#e38d76" stroke-linejoin="round" fill="none" d="M0,26.5L82,26.5"/><text class="st3"><tspan y="16.4" style="white-space:pre" x="8">fsnotify</tspan></text></g><g transform="matrix(1,0,0,1,847,412.5)" id="157" ed:width="154" ed:parentid="151" ed:height="26.5"><path stroke="#e38d76" stroke-linejoin="round" fill="none" d="M0,26.5L154,26.5"/><text class="st3"><tspan y="16.4" style="white-space:pre" x="8">__fsnotify_parent</tspan></text></g><g transform="matrix(1,0,0,1,791,445.5)" id="159" ed:width="98" ed:parentid="155" ed:height="26.5"><path stroke="#e38d76" stroke-linejoin="round" fill="none" d="M0,26.5L98,26.5"/><text class="st3"><tspan y="16.4" style="white-space:pre" x="8">real_mount</tspan></text></g><g transform="matrix(1,0,0,1,791,478.5)" id="161" ed:width="130" ed:parentid="155" ed:height="26.5"><path stroke="#e38d76" stroke-linejoin="round" fill="none" d="M0,26.5L130,26.5"/><text class="st3"><tspan y="16.4" style="white-space:pre" x="8">srcu_read_lock</tspan></text></g><g transform="matrix(1,0,0,1,791,511.5)" id="163" ed:width="170" ed:parentid="155" ed:height="26.5"><path stroke="#e38d76" stroke-linejoin="round" fill="none" d="M0,26.5L170,26.5"/><text class="st3"><tspan y="16.4" style="white-space:pre" x="8">fsnotify_first_mark</tspan></text></g><g transform="matrix(1,0,0,1,378,637)" id="165" ed:width="130" ed:parentid="108" ed:height="26.5"><path stroke="#7dbd8d" stroke-linejoin="round" fill="none" d="M0,26.5L130,26.5"/><text class="st3"><tspan y="16.4" style="white-space:pre" x="8">__f_unlock_pos</tspan></text></g><g transform="matrix(1,0,0,1,378,670)" id="167" ed:width="58" ed:parentid="108" ed:height="26.5"><path stroke="#7dbd8d" stroke-linejoin="round" fill="none" d="M0,26.5L58,26.5"/><text class="st3"><tspan y="16.4" style="white-space:pre" x="8">fdput</tspan></text></g><g transform="matrix(1,0,0,1,463,670)" id="169" ed:width="50" ed:parentid="167" ed:height="26.5"><path stroke="#7dbd8d" stroke-linejoin="round" fill="none" d="M0,26.5L50,26.5"/><text class="st3"><tspan y="16.4" style="white-space:pre" x="8">fput</tspan></text></g><g transform="matrix(1,0,0,1,540,670)" id="171" ed:width="90" ed:parentid="169" ed:height="26.5"><path stroke="#7dbd8d" stroke-linejoin="round" fill="none" d="M0,26.5L90,26.5"/><text class="st3"><tspan y="16.4" style="white-space:pre" x="8">fput_many</tspan></text></g></svg>